<?xml version="1.0" standalone="no"?><!DOCTYPE svg PUBLIC "-//W3C//DTD SVG 1.1//EN" "http://www.w3.org/Graphics/SVG/1.1/DTD/svg11.dtd"><svg class="icon" width="200px" height="200.00px" viewBox="0 0 1024 1024" version="1.1" xmlns="http://www.w3.org/2000/svg"><path fill="#d81e06" d="M419.5 309.304c-17.514-9.487-35.029-18.974-52.543-28.583l-87.209-47.435c-11.798-6.447-16.663-16.299-9.973-28.462 6.69-12.284 17.88-13.136 29.434-6.81 68.113 37.096 136.347 74.072 204.338 111.655 17.393 9.609 48.773 3.892 59.842-12.406a66632.417 66632.417 0 0 0 104.115-151.55c1.216-1.825 2.432-3.65 3.648-5.352 9.852-13.745 21.164-17.393 31.38-9.366 11.799 9.366 9.853 20.434 2.19 31.624a18582.62 18582.62 0 0 0-42.205 61.788c-19.461 28.583-38.922 57.166-60.694 88.911h245.084c22.867 0 26.394 3.649 26.515 26.515 0.244 156.78 0.365 313.44 0.609 470.22 0 22.38-4.014 26.272-26.88 26.394-5.96 0-12.042 0.608-17.88-0.122-21.65-2.432-37.462-0.364-45.003 26.394-6.811 24.083-32.475 36.367-55.585 33.935-26.758-2.798-44.395-18.61-51.206-43.544-4.135-15.082-11.19-17.15-24.812-17.028-94.02 0.608-187.918 0.365-281.938 0.122-10.825 0-17.15 0.973-20.312 14.109-6.811 28.218-30.043 46.098-55.706 46.584-26.637 0.487-49.747-16.907-57.531-46.22-3.284-12.284-8.758-15.081-20.07-14.473-14.595 0.851-29.312 0.365-44.029 0.121-16.055-0.364-23.11-6.932-23.11-22.623 0.122-159.334 0.365-318.791 0.73-478.247 0-16.542 6.69-22.015 25.056-22.015 75.532-0.122 151.064 0 226.474 0h15.812c0.487-1.338 0.973-2.676 1.46-4.136z m417.555 490.29V349.076H188.648v450.516h648.407z m-520.94 37.948h-44.638c3.041 12.77 9.244 21.771 21.164 22.501 13.258 0.973 19.582-8.879 23.474-22.501z m394.445-0.122c4.5 13.623 10.582 23.596 23.961 22.623 12.042-0.851 17.637-10.217 21.286-22.623H710.56zM513.399 768.578H252.746c-25.299 0-29.312-4.014-29.312-29.313 0.121-108.98 0.243-217.96 0.486-327.062 0-22.988 4.744-27.732 27.61-27.732h523.008c23.23 0 27.974 4.622 28.096 27.367 0.365 109.588 0.608 219.055 0.73 328.643 0 23.475-4.865 27.975-29.07 28.097H513.4z m250.678-38.557V423.393H262.234V730.02h501.843zM515.71 675.653c-6.69 4.743-12.893 10.095-19.948 13.865-23.23 12.285-46.34 11.19-67.747-3.77-23.596-16.542-34.057-40.746-31.989-68.964 0.487-6.082 11.677-15.69 18.123-15.934 6.325-0.243 14.352 8.515 18.974 15.204 3.65 5.352 2.068 13.866 4.622 20.312 4.865 12.285 13.866 23.961 27.367 21.042 9.973-2.067 18.974-12.163 26.393-20.434 3.65-4.135 3.041-12.284 4.014-18.609 1.703-12.041 8.636-19.339 20.434-19.096 10.703 0.244 17.636 6.812 19.096 18.488 0.851 7.42 1.094 16.663 5.473 21.528 7.055 7.906 17.028 17.393 26.15 17.758 8.15 0.244 18.123-9.73 24.57-17.514 4.257-5.109 4.013-14.231 5.351-21.65 2.19-11.798 8.88-18.975 21.042-18.123 12.042 0.973 18.366 8.757 17.88 21.042-1.216 31.015-13.38 56.193-42.084 70.058-26.758 12.893-51.814 7.42-73.708-12.527-1.216-0.852-2.554-1.582-4.013-2.676z m214.068-116.035c0.365 18.366-14.596 28.461-28.461 20.555-37.097-21.163-73.586-43.421-109.954-65.801-9.608-5.96-11.676-15.69-6.081-25.542 5.716-10.096 15.812-12.772 25.177-7.42 37.462 21.65 74.56 43.908 111.413 66.653 4.257 2.798 6.325 9.244 7.906 11.555z m-316.602-70.667c3.406 3.406 12.163 8.15 13.136 13.988 1.095 6.932-2.554 18.974-7.906 21.65-32.232 16.541-65.315 31.38-98.52 46.097-10.095 4.5-21.164 1.095-23.718-9.852-1.703-7.176 1.338-20.677 6.447-23.353 33.204-17.028 67.504-31.745 101.439-47.192 1.46-0.608 3.162-0.486 9.122-1.338z" /></svg>