<?xml version="1.0" standalone="no"?>
<!DOCTYPE svg PUBLIC "-//W3C//DTD SVG 20010904//EN"
 "http://www.w3.org/TR/2001/REC-SVG-20010904/DTD/svg10.dtd">
<svg version="1.0" xmlns="http://www.w3.org/2000/svg"
 width="500.000000pt" height="500.000000pt" viewBox="0 0 500.000000 500.000000"
 preserveAspectRatio="xMidYMid meet">
<metadata>
Created by potrace 1.14, written by Peter Selinger 2001-2017
</metadata>
<g transform="translate(0.000000,500.000000) scale(0.100000,-0.100000)"
fill="#000000" stroke="none">
<path d="M2388 3750 c-348 -63 -592 -352 -591 -700 0 -189 61 -343 188 -478
261 -278 662 -305 968 -64 101 80 182 205 228 352 30 96 32 270 5 369 -67 244
-262 441 -501 506 -72 19 -231 27 -297 15z m162 -74 c0 -2 -9 -23 -20 -47 -35
-79 -24 -153 34 -232 16 -22 119 -106 175 -144 9 -6 -46 -56 -84 -76 -34 -19
-57 -22 -155 -22 -128 -1 -163 -12 -186 -56 -18 -36 -18 -80 1 -127 53 -125
209 -165 355 -92 74 38 127 125 137 226 7 63 10 63 22 3 l9 -44 1 60 c1 80
-20 124 -107 217 -39 42 -80 95 -92 117 -21 43 -28 113 -15 170 7 32 9 33 44
27 53 -8 171 -70 236 -122 126 -103 205 -263 205 -415 0 -21 5 -49 11 -63 15
-33 -11 -160 -48 -235 -34 -70 -160 -199 -228 -234 -27 -14 -46 -26 -41 -27
16 0 111 51 150 82 58 47 29 1 -36 -56 -69 -60 -184 -119 -275 -141 -99 -24
-264 -17 -346 14 -100 39 -180 115 -194 185 -4 17 -14 31 -25 34 -75 19 -31
277 68 408 28 36 93 75 149 89 17 4 85 7 152 6 170 -1 193 11 67 33 -238 41
-227 40 -284 22 -29 -9 -54 -15 -57 -12 -3 2 16 27 42 55 50 54 45 62 -20 32
-53 -24 -89 -78 -118 -179 -23 -81 -24 -83 -39 -60 -20 29 -26 23 -38 -42 -16
-84 -12 -207 10 -299 11 -46 18 -86 16 -88 -9 -9 -59 78 -83 144 -18 49 -27
97 -30 171 -5 93 -14 122 -26 90 -3 -9 -7 -7 -12 5 -4 10 0 58 9 105 53 271
258 473 521 511 65 9 145 13 145 7z"/>
<path d="M2331 3570 c-95 -34 -187 -115 -232 -202 -25 -49 -15 -48 28 2 43 50
108 95 151 104 28 7 33 4 40 -15 8 -21 13 -16 61 54 48 71 50 77 29 77 -13 -1
-47 -10 -77 -20z"/>
<path d="M2694 3533 c9 -71 68 -160 161 -243 l27 -25 -7 25 c-4 14 -18 40 -31
59 -13 19 -22 37 -19 39 2 2 23 -9 47 -25 71 -48 71 -49 55 -17 -9 16 -27 44
-41 63 -14 19 -24 36 -22 38 2 3 23 -5 46 -17 l41 -21 -23 31 c-29 40 -97 85
-159 105 -27 9 -51 21 -54 26 -4 5 -11 9 -17 9 -7 0 -9 -16 -4 -47z"/>
<path d="M2460 3385 c0 -21 27 -55 43 -55 19 0 18 3 -8 30 -28 30 -35 34 -35
25z"/>
<path d="M2463 1996 c-37 -17 -73 -69 -73 -107 0 -14 11 -48 25 -75 14 -27 25
-50 25 -51 0 0 -20 -13 -44 -27 -84 -49 -98 -145 -31 -205 59 -51 153 -51 227
1 28 19 28 19 60 -6 38 -28 93 -41 137 -31 30 6 44 25 19 25 -7 0 -36 23 -65
52 l-52 51 21 29 c11 16 30 55 42 86 18 48 26 58 49 60 15 2 27 8 27 13 0 5
-36 9 -80 9 -47 0 -80 -4 -80 -10 0 -5 11 -10 25 -10 35 0 40 -20 20 -83 -28
-91 -28 -91 -106 -7 -69 75 -69 75 -47 90 76 51 98 91 79 143 -21 54 -114 82
-178 53z m101 -32 c22 -22 20 -83 -4 -122 -24 -39 -37 -38 -67 8 -41 59 -23
130 32 130 13 0 31 -7 39 -16z m-19 -308 c61 -74 65 -81 49 -93 -10 -7 -38
-13 -62 -13 -37 0 -50 6 -78 34 -39 39 -45 85 -18 143 19 40 10 46 109 -71z"/>
<path d="M3000 1999 c-84 -26 -124 -91 -102 -167 15 -50 52 -83 139 -126 40
-20 77 -45 83 -55 18 -35 12 -80 -15 -107 -22 -22 -32 -25 -82 -22 -57 3 -57
3 -71 43 -27 78 -31 85 -47 79 -11 -5 -15 -21 -15 -61 0 -53 1 -54 38 -70 46
-21 176 -23 212 -4 92 49 115 147 53 221 -14 17 -53 45 -87 62 -87 43 -116 73
-116 119 0 50 35 79 96 79 l43 0 18 -56 c15 -48 36 -76 47 -63 2 2 6 27 10 55
6 48 5 51 -21 63 -37 17 -141 23 -183 10z"/>
<path d="M1800 1990 c0 -5 14 -10 30 -10 l30 0 0 -230 0 -230 -30 0 c-16 0
-30 -4 -30 -10 0 -6 42 -10 105 -10 63 0 105 4 105 10 0 6 -11 10 -25 10 -25
0 -25 1 -25 84 0 75 3 88 24 113 13 15 26 26 29 23 8 -9 107 -206 107 -213 0
-4 -9 -7 -20 -7 -11 0 -20 -4 -20 -10 0 -6 42 -10 105 -10 58 0 105 4 105 9 0
5 -10 11 -22 13 -18 2 -40 36 -106 161 l-83 157 53 70 c49 63 56 69 91 69 20
1 37 6 37 11 0 6 -35 10 -85 10 -47 0 -85 -4 -85 -9 0 -6 14 -11 31 -13 l31
-3 -82 -105 c-45 -58 -89 -112 -96 -120 -12 -12 -14 4 -14 108 l0 122 30 0
c17 0 30 5 30 10 0 6 -43 10 -110 10 -67 0 -110 -4 -110 -10z"/>
<path d="M2235 1350 c-3 -5 -1 -10 4 -10 6 0 11 5 11 10 0 6 -2 10 -4 10 -3 0
-8 -4 -11 -10z"/>
<path d="M2990 1280 c0 -83 17 -112 22 -38 2 31 8 44 21 46 14 3 17 -4 17 -42
0 -25 5 -46 10 -46 15 0 12 86 -4 99 -7 6 -21 9 -30 5 -13 -5 -16 0 -16 25 0
17 -4 31 -10 31 -6 0 -10 -33 -10 -80z"/>
<path d="M1840 1275 c0 -43 4 -75 10 -75 6 0 10 9 10 19 0 25 10 51 19 51 5 0
16 -16 27 -35 10 -19 22 -35 26 -35 12 0 10 5 -13 45 -21 35 -21 38 -6 71 22
45 8 43 -23 -3 l-25 -37 -3 37 c-6 67 -22 39 -22 -38z"/>
<path d="M2496 1334 c-25 -24 -19 -38 27 -67 15 -10 27 -25 27 -34 0 -12 -7
-14 -35 -10 -19 3 -35 2 -35 -3 0 -16 47 -22 69 -10 32 17 26 48 -14 71 -45
27 -47 53 -5 47 32 -5 41 6 14 16 -24 9 -31 8 -48 -10z"/>
<path d="M2630 1326 c0 -8 -6 -17 -12 -20 -10 -5 -10 -7 0 -12 6 -3 12 -23 12
-45 0 -38 21 -62 38 -44 4 4 1 10 -5 12 -7 3 -13 20 -13 38 0 18 6 36 13 39
10 5 10 7 0 12 -7 3 -13 12 -13 20 0 8 -4 14 -10 14 -5 0 -10 -6 -10 -14z"/>
<path d="M1994 1285 c-28 -43 10 -99 54 -79 14 6 12 8 -12 13 -44 9 -45 31 -2
31 38 0 43 8 26 41 -15 27 -46 24 -66 -6z m56 -5 c0 -5 -12 -10 -26 -10 -14 0
-23 4 -19 10 3 6 15 10 26 10 10 0 19 -4 19 -10z"/>
<path d="M2110 1302 c0 -24 34 -102 43 -99 13 4 39 77 34 97 -2 8 -10 -6 -17
-32 -16 -53 -25 -54 -34 -3 -6 31 -26 60 -26 37z"/>
<path d="M2230 1255 c0 -30 5 -55 10 -55 6 0 10 25 10 55 0 30 -4 55 -10 55
-5 0 -10 -25 -10 -55z"/>
<path d="M2300 1254 c0 -64 17 -73 22 -12 2 31 8 44 21 46 14 3 17 -4 17 -42
0 -25 5 -46 10 -46 11 0 14 99 3 101 -5 1 -23 2 -40 4 l-33 3 0 -54z"/>
<path d="M2724 1285 c-9 -14 -13 -32 -9 -45 8 -26 41 -44 63 -34 13 6 11 8
-12 13 -44 9 -45 31 -2 31 29 0 36 4 36 20 0 18 -26 40 -49 40 -6 0 -18 -11
-27 -25z m56 -5 c0 -5 -12 -10 -26 -10 -14 0 -23 4 -19 10 3 6 15 10 26 10 10
0 19 -4 19 -10z"/>
<path d="M2850 1233 c0 -42 4 -73 10 -73 6 0 10 12 10 26 0 20 4 24 19 19 25
-8 51 19 51 54 0 35 -16 48 -57 48 l-33 0 0 -74z m65 22 c0 -23 -5 -31 -22
-33 -19 -3 -23 1 -23 26 0 33 8 44 30 40 9 -2 15 -14 15 -33z"/>
<path d="M3126 1288 c-9 -12 -16 -30 -16 -40 0 -24 45 -52 67 -43 15 7 13 9
-11 14 -44 9 -45 31 -2 31 29 0 36 4 36 20 0 18 -26 40 -49 40 -5 0 -17 -10
-25 -22z m54 -8 c0 -5 -12 -10 -26 -10 -14 0 -23 4 -19 10 3 6 15 10 26 10 10
0 19 -4 19 -10z"/>
<path d="M3250 1253 c0 -63 17 -72 22 -11 2 31 8 44 21 46 14 3 17 -4 17 -42
0 -25 5 -46 10 -46 11 0 13 79 2 96 -4 6 -22 11 -39 11 l-33 0 0 -54z"/>
</g>
</svg>
