<svg xmlns="http://www.w3.org/2000/svg" xmlns:xlink="http://www.w3.org/1999/xlink" version="1.1"
	width="1080" height="1080" viewBox="0 0 1080 1080" xml:space="preserve">
<desc>Created with Fabric.js 5.2.4</desc>
<defs>
</defs>
<g transform="matrix(1 0 0 1 540 540)" id="2bb5d55c-e63a-46c7-9273-6165de35ff86"  >
<rect style="stroke: none; stroke-width: 1; stroke-dasharray: none; stroke-linecap: butt; stroke-dashoffset: 0; stroke-linejoin: miter; stroke-miterlimit: 4; fill: rgb(255,255,255); fill-rule: nonzero; opacity: 1; visibility: hidden;" vector-effect="non-scaling-stroke"  x="-540" y="-540" rx="0" ry="0" width="1080" height="1080" />
</g>
<g transform="matrix(Infinity NaN NaN Infinity 0 0)" id="891f31a6-5691-40d8-84be-ddf81f4c6070"  >
</g>
<g transform="matrix(1 0 0 1 540 540)"  >
<g style="" vector-effect="non-scaling-stroke"   >
		<g transform="matrix(3.13 0 0 3.13 0 0)"  >
<path style="stroke: none; stroke-width: 1; stroke-dasharray: none; stroke-linecap: butt; stroke-dashoffset: 0; stroke-linejoin: miter; stroke-miterlimit: 10; fill: rgb(1,12,128); fill-rule: nonzero; opacity: 1;" vector-effect="non-scaling-stroke"  transform=" translate(-160, -180)" d="M 20.961 227.22 L 24.686999999999998 231.878 L 22.823999999999998 225.82199999999997 C 22.357999999999997 223.027 19.098 226.28799999999998 20.961 227.21999999999997 M 25.153 224.425 C 26.549999999999997 226.75400000000002 27.948 229.083 27.948 231.412 C 27.948 234.673 30.743000000000002 236.07 33.071 237.001 C 29.81 233.275 27.947 223.02700000000002 25.153 224.425 M 204.017 26.929 C 211.935 26.929 219.388 25.997 227.773 27.86 C 248.268 32.984 265.502 43.231 277.147 57.671 L 309.753 109.84 C 311.15 122.882 313.945 137.322 313.479 153.159 C 316.74 153.159 316.274 148.501 320 147.569 C 316.274 156.885 314.41 168.52999999999997 313.479 182.03799999999998 C 311.15 174.58499999999998 313.479 163.40599999999998 313.945 157.35099999999997 C 310.68399999999997 162.47499999999997 308.82099999999997 158.74799999999996 308.82099999999997 156.41899999999998 C 309.287 152.69299999999998 307.424 153.158 306.02599999999995 151.761 C 300.90199999999993 147.103 297.64199999999994 141.97899999999998 293.91599999999994 134.061 C 296.24499999999995 128.006 296.71099999999996 119.156 289.2579999999999 114.498 C 286.9289999999999 113.101 284.1339999999999 110.772 282.7369999999999 107.045 C 280.8739999999999 101.921 277.6129999999999 95.866 278.5439999999999 87.94800000000001 C 279.00999999999993 85.61900000000001 271.5569999999999 93.072 267.36499999999995 89.811 C 249.19899999999996 77.23500000000001 231.03299999999996 62.79500000000001 209.14099999999996 50.684000000000005 C 197.49599999999995 50.684000000000005 189.11199999999997 46.492000000000004 184.91999999999996 41.368 C 181.19399999999996 36.71 183.98799999999997 30.655 189.57799999999995 30.189 C 192.83899999999994 30.189 196.56499999999994 29.257 199.35999999999996 31.121 C 199.82599999999996 29.258 201.68899999999996 26.929 204.01699999999997 26.929 M 157.904 16.215 L 158.83599999999998 16.681 C 163.49399999999997 17.613 165.82299999999998 24.134 170.94599999999997 21.805 C 170.94599999999997 25.066 171.41199999999998 28.326 170.47999999999996 30.655 C 169.08299999999997 34.381 164.88999999999996 34.381 161.62999999999997 34.381 C 130.42199999999997 32.518 112.25599999999997 45.56 93.15899999999996 56.739000000000004 C 88.03499999999997 60.00000000000001 82.44599999999997 62.32900000000001 78.25299999999996 66.521 C 58.22399999999996 85.153 36.33199999999996 102.387 31.207999999999956 136.856 L 27.015999999999956 175.051 C 26.549999999999955 179.243 21.891999999999957 183.435 22.823999999999955 188.559 L 26.083999999999953 211.383 C 22.822999999999954 208.122 20.959999999999955 212.315 21.891999999999953 214.178 C 22.357999999999954 215.575 24.220999999999954 220.233 27.015999999999952 216.041 C 30.74199999999995 223.028 34.46899999999995 236.536 39.591999999999956 242.591 C 55.42899999999996 261.223 75.92399999999995 277.991 92.69299999999996 294.76 C 96.88499999999996 293.828 100.14599999999996 293.828 101.07699999999996 291.033 C 102.47399999999996 293.82800000000003 99.67999999999995 296.623 97.35099999999996 297.089 C 104.80399999999996 301.747 113.18799999999996 305.939 124.36699999999996 306.87 C 138.80699999999996 307.802 152.31499999999997 310.13100000000003 164.89099999999996 313.392 C 171.41199999999995 311.529 177.93299999999996 310.597 184.91999999999996 310.131 C 187.24899999999997 310.131 188.64599999999996 306.405 191.44099999999995 305.47299999999996 L 191.90699999999995 300.81499999999994 C 194.70199999999994 305.00699999999995 194.23599999999996 299.41799999999995 192.37299999999996 296.62299999999993 C 195.63399999999996 299.41799999999995 196.56499999999997 301.74699999999996 197.96199999999996 303.60999999999996 C 197.96199999999996 302.21299999999997 201.68799999999996 297.08899999999994 201.68899999999996 303.14399999999995 L 202.61999999999998 297.08899999999994 C 204.01699999999997 296.1569999999999 204.48299999999998 302.21299999999997 205.88099999999997 298.0199999999999 C 207.27799999999996 293.8279999999999 210.07299999999998 297.0879999999999 212.86799999999997 295.6909999999999 C 211.93599999999998 297.5539999999999 212.40199999999996 301.2809999999999 215.66199999999998 298.95199999999994 L 219.38899999999998 295.6909999999999 C 221.718 301.2809999999999 225.444 298.95199999999994 227.307 298.0199999999999 C 247.802 284.97799999999995 268.29699999999997 269.6069999999999 287.86 254.23599999999993 L 287.394 260.29099999999994 L 289.723 252.83799999999994 C 292.052 255.16699999999994 293.915 253.30399999999995 294.84700000000004 251.90699999999993 C 297.64200000000005 247.24899999999994 301.36800000000005 242.59099999999992 307.42400000000004 238.39899999999992 C 299.97100000000006 258.42799999999994 291.12100000000004 274.26499999999993 279.942 287.3069999999999 L 275.284 292.8969999999999 C 275.284 296.1579999999999 274.352 300.34999999999985 270.626 300.8149999999999 C 268.763 301.2809999999999 265.036 299.88299999999987 262.24199999999996 302.6779999999999 C 260.84499999999997 304.5409999999999 265.503 308.26799999999986 261.77599999999995 305.4729999999999 C 258.51499999999993 303.1439999999999 255.25499999999997 305.4729999999999 251.52799999999996 306.4049999999999 C 248.73299999999998 307.33699999999993 253.39099999999996 310.1309999999999 254.32299999999995 311.9939999999999 C 255.25499999999994 313.8569999999999 256.186 315.7199999999999 255.72099999999995 318.0499999999999 L 250.59699999999995 312.4599999999999 C 244.54199999999994 315.72099999999995 240.81499999999994 321.7759999999999 235.69099999999995 326.4339999999999 C 233.36199999999994 328.2969999999999 234.29399999999995 331.55799999999994 234.29399999999995 334.3519999999999 C 231.03299999999996 334.3519999999999 227.30699999999996 333.4199999999999 225.44399999999996 335.28399999999993 C 224.04699999999997 337.14699999999993 224.51199999999997 339.94199999999995 224.51199999999997 342.7369999999999 C 219.85399999999998 342.2709999999999 219.38799999999998 335.28399999999993 215.19699999999997 336.6809999999999 C 211.00499999999997 337.61299999999994 206.34699999999998 338.0779999999999 202.61999999999998 340.4079999999999 C 205.41499999999996 345.9979999999999 197.962 342.7369999999999 198.89399999999998 343.6679999999999 C 191.90699999999998 339.4759999999999 185.85199999999998 336.2149999999999 178.39899999999997 339.0099999999999 C 162.56199999999998 333.88599999999985 142.99899999999997 336.21499999999986 128.55899999999997 338.0789999999999 C 128.55899999999997 335.7499999999999 129.02499999999998 333.4209999999999 128.09299999999996 332.95499999999987 C 127.16099999999996 335.2839999999999 124.36699999999996 334.35199999999986 124.83299999999996 334.35199999999986 C 115.98299999999996 328.29699999999985 107.13299999999995 324.5699999999999 97.81699999999995 319.4469999999999 C 89.43299999999995 320.3789999999999 81.51399999999995 316.18599999999986 79.18499999999995 313.8569999999999 C 72.66399999999994 307.8019999999999 65.21099999999994 311.0619999999999 59.15599999999995 309.6649999999999 C 46.11399999999995 306.4039999999999 41.455999999999946 292.8959999999999 40.05799999999995 283.5809999999999 C 39.12599999999995 278.9229999999999 35.39999999999995 277.0599999999999 34.00299999999995 277.5249999999999 C 27.94799999999995 257.96199999999993 18.631999999999948 240.26199999999992 11.178999999999949 222.09599999999992 C 9.31599999999995 217.43799999999993 9.781999999999949 212.77999999999992 9.781999999999949 207.65599999999992 C 12.11099999999995 208.5879999999999 14.439999999999948 208.12199999999993 13.973999999999949 204.8619999999999 C 11.644999999999948 189.4909999999999 6.0559999999999485 177.84599999999992 -5.1514348342607263e-14 166.66699999999992 C 3.2609999999999486 150.82999999999993 3.7259999999999485 132.19799999999992 11.178999999999949 118.22399999999992 C 17.69999999999995 105.64799999999991 29.81099999999995 99.12599999999992 38.19499999999995 88.41299999999993 C 40.98999999999995 84.68699999999993 40.98999999999995 79.56299999999993 43.784999999999954 76.30299999999993 C 53.10099999999996 66.98699999999992 62.41699999999996 57.20499999999993 72.66399999999996 48.82099999999993 C 77.32199999999996 45.09499999999993 82.91099999999996 48.82099999999993 89.89799999999997 47.42399999999993 C 92.22699999999996 39.03999999999993 101.54299999999996 31.58699999999993 110.39299999999997 33.915999999999926 C 114.11899999999997 34.84799999999993 121.57199999999997 25.065999999999924 123.90099999999997 24.133999999999926 C 127.62699999999997 22.736999999999927 125.76399999999997 27.859999999999925 125.76399999999997 31.120999999999924 C 134.61399999999998 24.133999999999922 146.72499999999997 20.407999999999923 157.90399999999997 16.214999999999925" stroke-linecap="round" />
</g>
		<g transform="matrix(3.82 0 0 3.82 0.02 122.57)" id="text-0"  >
<path style="stroke: none; stroke-width: 1; stroke-dasharray: none; stroke-linecap: butt; stroke-dashoffset: 0; stroke-linejoin: miter; stroke-miterlimit: 4; fill: rgb(1,12,128); fill-rule: nonzero; opacity: 1;" vector-effect="non-scaling-stroke"  transform=" translate(-81.67, 13.77)" d="M 17.25 -34.8 Q 21.5 -34.8 24.7 -32.95 Q 27.9 -31.1 29.68 -27.63 Q 31.45 -24.15 31.45 -19.4 L 31.45 -19.4 L 31.45 -14.9 Q 31.45 -8.65 28.45 -4.63 Q 25.45 -0.6 20.1 0.25 L 20.1 0.25 Q 20.55 1.95 21.88 2.73 Q 23.2 3.5 25.05 3.5 L 25.05 3.5 Q 27.3 3.5 30.3 2.3 L 30.3 2.3 L 30.9 2.1 L 30.9 5.6 Q 28 7.25 24.95 7.25 L 24.95 7.25 Q 20.05 7.25 17.95 5.38 Q 15.85 3.5 15.25 0.4 L 15.25 0.4 Q 9.45 -0.3 6.25 -4.33 Q 3.05 -8.35 3.05 -14.9 L 3.05 -14.9 L 3.05 -19.4 Q 3.05 -24.15 4.83 -27.63 Q 6.6 -31.1 9.8 -32.95 Q 13 -34.8 17.25 -34.8 L 17.25 -34.8 Z M 17.25 -30.35 Q 12.85 -30.35 10.4 -27.55 Q 7.95 -24.75 7.95 -19.4 L 7.95 -19.4 L 7.95 -14.9 Q 7.95 -9.55 10.33 -6.75 Q 12.7 -3.95 17.25 -3.95 L 17.25 -3.95 Q 21.65 -3.95 24.1 -6.73 Q 26.55 -9.5 26.55 -14.9 L 26.55 -14.9 L 26.55 -19.4 Q 26.55 -24.75 24.18 -27.55 Q 21.8 -30.35 17.25 -30.35 L 17.25 -30.35 Z M 48.7 -26.05 Q 53.75 -26.05 56.22 -24.05 Q 58.7 -22.05 58.7 -18.25 L 58.7 -18.25 L 58.7 -5 Q 58.7 -4.1 59.1 -3.68 Q 59.5 -3.25 60.1 -3.25 L 60.1 -3.25 Q 61.25 -3.25 62.4 -3.95 L 62.4 -3.95 L 62.4 -0.5 Q 60.7 0.5 58.55 0.5 L 58.55 0.5 Q 56.4 0.5 55.35 -0.73 Q 54.3 -1.95 54.2 -4.1 L 54.2 -4.1 Q 51.1 0.5 45.25 0.5 L 45.25 0.5 Q 41.05 0.5 38.97 -1.33 Q 36.9 -3.15 36.9 -7.1 L 36.9 -7.1 Q 36.9 -10.2 38.5 -11.98 Q 40.1 -13.75 43.8 -14.55 Q 47.5 -15.35 54 -15.35 L 54 -15.35 L 54 -17.7 Q 54 -20.25 52.5 -21.28 Q 51 -22.3 48.15 -22.3 L 48.15 -22.3 Q 45.45 -22.3 43.95 -21.25 Q 42.45 -20.2 42.45 -18.3 L 42.45 -18.3 L 42.45 -17.7 L 37.85 -17.7 Q 37.75 -18.4 37.75 -19.35 L 37.75 -19.35 Q 37.75 -21.1 39.15 -22.65 Q 40.55 -24.2 42.95 -25.13 Q 45.35 -26.05 48.25 -26.05 L 48.25 -26.05 L 48.7 -26.05 Z M 54 -11.7 Q 48.75 -11.7 46.07 -11.18 Q 43.4 -10.65 42.5 -9.6 Q 41.6 -8.55 41.6 -6.7 L 41.6 -6.7 Q 41.6 -3.25 46.85 -3.25 L 46.85 -3.25 Q 48.7 -3.25 50.35 -4.17 Q 52 -5.1 53 -6.8 Q 54 -8.5 54 -10.7 L 54 -10.7 L 54 -11.7 Z M 79.4 -26.05 Q 82.95 -26.05 84.95 -23.78 Q 86.95 -21.5 86.95 -18.05 L 86.95 -18.05 L 86.8 -16.15 L 82.65 -16.15 L 82.65 -17.25 Q 82.65 -18.75 81.9 -19.9 Q 81.15 -21.05 80 -21.68 Q 78.84 -22.3 77.7 -22.3 L 77.7 -22.3 Q 75.3 -22.3 73.95 -20.4 Q 72.59 -18.5 72.59 -15.25 L 72.59 -15.25 L 72.59 0 L 67.9 0 L 67.9 -25.55 L 71.25 -25.55 L 71.95 -21.75 Q 72.25 -22.75 73.3 -23.75 Q 74.34 -24.75 75.92 -25.4 Q 77.5 -26.05 79.4 -26.05 L 79.4 -26.05 Z M 124.84 -34.3 L 130.49 -34.3 L 117.89 -19.15 L 130.89 0 L 125.19 0 L 114.79 -15.4 L 109.94 -10.3 L 109.94 0 L 105.04 0 L 105.04 -34.3 L 109.94 -34.3 L 109.94 -16.45 L 124.84 -34.3 Z M 147.29 -34.8 Q 152.94 -34.8 156.16 -32.3 Q 159.39 -29.8 159.39 -25.2 L 159.39 -25.2 L 159.39 -24.6 L 154.49 -24.6 L 154.49 -25.35 Q 154.49 -27.75 152.54 -29.05 Q 150.59 -30.35 147.39 -30.35 L 147.39 -30.35 Q 143.84 -30.35 141.86 -29.18 Q 139.89 -28 139.89 -25.8 L 139.89 -25.8 Q 139.89 -24.15 141.01 -23.1 Q 142.14 -22.05 143.81 -21.45 Q 145.49 -20.85 148.44 -20.1 L 148.44 -20.1 Q 152.24 -19.1 154.59 -18.15 Q 156.94 -17.2 158.61 -15.3 Q 160.29 -13.4 160.29 -10.25 L 160.29 -10.25 Q 160.29 -4.65 156.86 -2.08 Q 153.44 0.5 147.24 0.5 L 147.24 0.5 Q 141.04 0.5 137.61 -2.13 Q 134.19 -4.75 134.19 -9.75 L 134.19 -9.75 L 134.24 -10.75 L 139.14 -10.75 L 139.09 -9.7 Q 139.09 -6.8 141.26 -5.38 Q 143.44 -3.95 147.29 -3.95 L 147.29 -3.95 Q 151.04 -3.95 153.21 -5.33 Q 155.39 -6.7 155.39 -9.1 L 155.39 -9.1 Q 155.39 -11 154.21 -12.18 Q 153.04 -13.35 151.26 -14 Q 149.49 -14.65 146.44 -15.45 L 146.44 -15.45 Q 142.69 -16.45 140.44 -17.35 Q 138.19 -18.25 136.59 -20.13 Q 134.99 -22 134.99 -25.05 L 134.99 -25.05 Q 134.99 -30 138.34 -32.4 Q 141.69 -34.8 147.29 -34.8 L 147.29 -34.8 Z" stroke-linecap="round" />
</g>
		<g transform="matrix(2.22 0 0 2.22 0 -92.11)"  >
<circle style="stroke: none; stroke-width: 1; stroke-dasharray: none; stroke-linecap: butt; stroke-dashoffset: 0; stroke-linejoin: miter; stroke-miterlimit: 4; fill: rgb(0,255,239); fill-rule: nonzero; opacity: 1;" vector-effect="non-scaling-stroke"  cx="0" cy="0" r="8.3" />
</g>
		<g transform="matrix(2.22 0 0 2.22 1.05 -165.64)"  >
<path style="stroke: none; stroke-width: 1; stroke-dasharray: none; stroke-linecap: butt; stroke-dashoffset: 0; stroke-linejoin: miter; stroke-miterlimit: 4; fill: rgb(0,255,239); fill-rule: nonzero; opacity: 1;" vector-effect="non-scaling-stroke"  transform=" translate(-50.45, -16.93)" d="M 57.492 7.246 C 57.492 11.135 54.339999999999996 33.65 50.45099999999999 33.65 C 46.562999999999995 33.65 43.41 11.134 43.41 7.245999999999999 C 43.41 3.357999999999997 46.562999999999995 0.2049999999999983 50.45099999999999 0.2049999999999983 C 54.34 0.205 57.492 3.357 57.492 7.246 z" stroke-linecap="round" />
</g>
		<g transform="matrix(2.22 0 0 2.22 1.05 -18.22)"  >
<path style="stroke: none; stroke-width: 1; stroke-dasharray: none; stroke-linecap: butt; stroke-dashoffset: 0; stroke-linejoin: miter; stroke-miterlimit: 4; fill: rgb(0,255,239); fill-rule: nonzero; opacity: 1;" vector-effect="non-scaling-stroke"  transform=" translate(-50.45, -83.28)" d="M 43.41 92.958 C 43.41 89.069 46.562999999999995 66.555 50.45099999999999 66.555 C 54.339999999999996 66.555 57.49199999999999 89.07000000000001 57.49199999999999 92.958 C 57.49199999999999 96.84599999999999 54.34 100 50.451 100 C 46.563 100 43.41 96.847 43.41 92.958 z" stroke-linecap="round" />
</g>
		<g transform="matrix(2.22 0 0 2.22 54.99 -146.18)"  >
<path style="stroke: none; stroke-width: 1; stroke-dasharray: none; stroke-linecap: butt; stroke-dashoffset: 0; stroke-linejoin: miter; stroke-miterlimit: 4; fill: rgb(0,255,239); fill-rule: nonzero; opacity: 1;" vector-effect="non-scaling-stroke"  transform=" translate(-74.73, -25.69)" d="M 85.757 24.872 C 82.96600000000001 27.579 64.61500000000001 41.003 61.908 38.213 C 59.2 35.423 73.156 17.477 75.946 14.768 C 78.736 12.061 83.195 12.125 85.902 14.916 C 88.612 17.705 88.546 22.163 85.757 24.872 z" stroke-linecap="round" />
</g>
		<g transform="matrix(2.22 0 0 2.22 -53.72 -38.01)"  >
<path style="stroke: none; stroke-width: 1; stroke-dasharray: none; stroke-linecap: butt; stroke-dashoffset: 0; stroke-linejoin: miter; stroke-miterlimit: 4; fill: rgb(0,255,239); fill-rule: nonzero; opacity: 1;" vector-effect="non-scaling-stroke"  transform=" translate(-25.8, -74.37)" d="M 14.773 75.181 C 17.563 72.473 35.913 59.05199999999999 38.622 61.839 C 41.329 64.631 27.372999999999998 82.575 24.583 85.28399999999999 C 21.793999999999997 87.99399999999999 17.336 87.92899999999999 14.627999999999998 85.13799999999999 C 11.919 82.348 11.985 77.892 14.773 75.181 z" stroke-linecap="round" />
</g>
		<g transform="matrix(2.22 0 0 2.22 52.76 -36.19)"  >
<path style="stroke: none; stroke-width: 1; stroke-dasharray: none; stroke-linecap: butt; stroke-dashoffset: 0; stroke-linejoin: miter; stroke-miterlimit: 4; fill: rgb(0,255,239); fill-rule: nonzero; opacity: 1;" vector-effect="non-scaling-stroke"  transform=" translate(-73.73, -75.19)" d="M 74.163 86.315 C 71.533 83.449 58.614999999999995 64.741 61.477999999999994 62.108 C 64.342 59.479 81.9 73.92 84.53 76.785 C 87.163 79.646 86.975 84.101 84.114 86.732 C 81.25 89.364 76.797 89.177 74.163 86.315 z" stroke-linecap="round" />
</g>
		<g transform="matrix(2.22 0 0 2.22 -54.24 -146.18)"  >
<path style="stroke: none; stroke-width: 1; stroke-dasharray: none; stroke-linecap: butt; stroke-dashoffset: 0; stroke-linejoin: miter; stroke-miterlimit: 4; fill: rgb(0,255,239); fill-rule: nonzero; opacity: 1;" vector-effect="non-scaling-stroke"  transform=" translate(-25.57, -25.69)" d="M 24.717 14.668 C 27.433 17.448999999999998 40.906 35.762 38.123999999999995 38.477000000000004 C 35.342999999999996 41.194 17.356999999999996 27.289 14.640999999999995 24.504000000000005 C 11.923999999999994 21.725000000000005 11.976999999999995 17.265000000000004 14.760999999999994 14.547000000000004 C 17.542 11.832 22.002 11.885 24.717 14.668 z" stroke-linecap="round" />
</g>
		<g transform="matrix(2.22 0 0 2.22 -73.9 -92.61)"  >
<path style="stroke: none; stroke-width: 1; stroke-dasharray: none; stroke-linecap: butt; stroke-dashoffset: 0; stroke-linejoin: miter; stroke-miterlimit: 4; fill: rgb(0,255,239); fill-rule: nonzero; opacity: 1;" vector-effect="non-scaling-stroke"  transform=" translate(-16.72, -49.8)" d="M 7.041 42.756 C 10.931000000000001 42.756 33.444 45.91 33.444 49.798 C 33.444 53.687000000000005 10.930000000000003 56.84 7.041000000000004 56.84 C 3.153 56.84 0 53.687 0 49.798 C 0 45.91 3.153 42.756 7.041 42.756 z" stroke-linecap="round" />
</g>
		<g transform="matrix(2.22 0 0 2.22 73.9 -92.11)"  >
<path style="stroke: none; stroke-width: 1; stroke-dasharray: none; stroke-linecap: butt; stroke-dashoffset: 0; stroke-linejoin: miter; stroke-miterlimit: 4; fill: rgb(0,255,239); fill-rule: nonzero; opacity: 1;" vector-effect="non-scaling-stroke"  transform=" translate(-83.24, -50.02)" d="M 92.918 57.059 C 89.02900000000001 57.059 66.516 53.909 66.516 50.019999999999996 C 66.516 46.13099999999999 89.03 42.979 92.918 42.979 C 96.808 42.979 99.96000000000001 46.131 99.96000000000001 50.019999999999996 C 99.96000000000001 53.90899999999999 96.808 57.059 92.918 57.059 z" stroke-linecap="round" />
</g>
		<g transform="matrix(3.13 0 0 3.13 0 0)"  >
<rect style="stroke: none; stroke-width: 1; stroke-dasharray: none; stroke-linecap: butt; stroke-dashoffset: 0; stroke-linejoin: miter; stroke-miterlimit: 4; fill: none; fill-rule: nonzero; opacity: 1;" vector-effect="non-scaling-stroke"  x="-160" y="-180" rx="0" ry="0" width="320" height="360" />
</g>
</g>
</g>
</svg>